<?xml version="1.0" standalone="no"?>
<!DOCTYPE svg PUBLIC "-//W3C//DTD SVG 1.1//EN" "http://www.w3.org/Graphics/SVG/1.1/DTD/svg11.dtd" >
<svg xmlns="http://www.w3.org/2000/svg">
<metadata></metadata>
<defs>
<font id="horrorhotel" horiz-adv-x="346" >
<font-face units-per-em="2048" ascent="1638" descent="-410" />
<missing-glyph horiz-adv-x="282" />
<glyph horiz-adv-x="0" />
<glyph unicode="&#xd;" horiz-adv-x="282" />
<glyph unicode=" "  horiz-adv-x="282" />
<glyph unicode="&#x09;" horiz-adv-x="282" />
<glyph unicode="&#xa0;" horiz-adv-x="282" />
<glyph unicode="!" horiz-adv-x="169" d="M39 1563q12 6 24 6q37 0 66 -37q16 -76 12 -209q0 -10 -8 -197q-2 -29 -13 -83t-11 -78q0 -37 16 -68q2 -20 2 -43q0 -29 -5 -82t-5 -80q0 -33 6 -59q-4 -43 -4 -160q2 -100 -10 -158q8 -51 -3 -77q-18 -10 -40 -5q-10 70 -13 166q-2 121 0 189q2 66 4 211q2 119 -4 231 q12 96 -2 266q-14 193 -12 267zM49 88q16 12 27 12q37 -6 37 -14q0 -2 -1.5 -5.5t-7.5 -23.5q-2 -12 -18 -14t-35 4q-20 23 -2 41z" />
<glyph unicode="$" horiz-adv-x="399" d="M37 1040v242q2 47 37 88t78 53q4 47 8 93q4 55 22 88q57 -5 80 -58q-4 -47 0 -139q113 -51 113 -172q-18 -37 -15 -111q4 -80 -6 -112q4 -43 -2 -107q-16 -20 -49 -4q-8 27 -5 80t-1 76q-2 8 -6 112q-4 72 -29 109q-14 -20 -12 -68q0 -57 -2 -69v-88q2 -53 -12 -84 q4 -29 4 -121q-2 -78 12 -121q0 -51 4 -104.5t55 -77.5q39 -33 39 -96q0 -35 -12 -87q-2 -76 -4 -153q-10 -84 -92 -107q-10 -2 -13 -8q-4 -12 -6 -14q-2 -6 0 -21q4 -18 4 -22q0 -14 -18 -14q-10 0 -14 2q-6 12 -4 36.5t-3 34.5q-6 20 -36 21q-55 23 -62 88q-2 55 -4 112 q-18 88 4 121q37 4 49 -14q4 -150 0 -217q-6 -6 -6 -17q0 4 17 -38q8 0 17 -9.5t13 -9.5t8 4q6 59 2 223q-4 139 11 222q-8 43 -63.5 111.5t-65.5 111.5q-33 86 -35 235zM115 1120q-23 -86 18 -127q-6 -63 14 -139q18 -61 37 -123q0 53 4 168q-8 68 -7 205t-7 203l-6 2 q-57 -43 -53 -189zM240 461q14 -68 8 -164q-6 -143 -6 -154q39 27 39 88q0 14 -2.5 44t-2.5 44q0 18 3 33q-2 47 -5 94q-3 56 -34 89v-74z" />
<glyph unicode="." horiz-adv-x="163" d="M35 80q35 25 65 24q18 0 37 -10l6 -24q-8 -27 -37 -35h-51q-27 23 -20 45z" />
<glyph unicode="0" horiz-adv-x="358" d="M29 1364q-4 143 71 199q160 4 205 -107q41 -98 37 -262q-6 -4 -16 -31q2 -35 -10.5 -96t-12.5 -86q0 -33 14 -61q2 -47 -2 -203q-4 -111 9 -185q2 -70 -19 -270q6 -12 6 -26q0 -18 -12 -52t-12 -51q-10 -25 -45 -63q-86 -12 -123 32q-14 12 -12 41t-7 39q-16 88 -18 256 q0 178 -12 256q-10 63 -13 226q-2 143 -20 227q4 37 0 104q-8 98 -8 113zM98 1262q6 -31 4 -150q0 -94 27 -145q4 -109 12 -312q2 -135 -6 -268q2 -70 12 -199q4 -10 6.5 -43.5t20.5 -46.5q10 -6 23 -2q18 6 20 6q6 0 12 -6q16 20 19.5 68.5t15.5 68.5q-23 143 -24 283 q0 66 4 186q6 129 6 187q0 289 -19 454q-6 59 -10 76q-12 44 -39 60q-33 -37 -53 -107q-16 -55 -31 -110z" />
<glyph unicode="1" horiz-adv-x="319" d="M68 1501q0 12 16 19q8 0 30.5 -3.5t32.5 -3.5q35 0 48 35q76 -2 75 -90q0 -25 -6 -77t-6 -72q0 -23 4 -37q0 -51 -8 -68q6 -20 -8 -67q0 -16 6 -51t6 -54q0 -27 -12 -47q4 -31 0 -131q-4 -82 16 -127q2 -20 2 -41q0 -47 -13 -129t-13 -117q0 -18 2 -34q-2 -66 -2 -187 q0 -82 6 -172q-4 -10 -41 -10q2 86 -10 235q-8 90 -21 277q12 86 14 219q2 145 7 246q4 78 -11 205q-18 164 -20 202q-70 -4 -90 29q6 6 6 14q0 6 -5 18.5t-5 18.5z" />
<glyph unicode="2" d="M37 903q-8 205 6 264q-18 209 20 338q16 18 52.5 23.5t52.5 19.5q100 -8 149 -180q-4 -35 -30 -125q-20 -74 -21 -119q0 -37 10 -69q-2 -29 15 -230q-59 -184 -127 -274q-12 -27 -28.5 -88.5t-35.5 -89.5q-4 -10 6.5 -21.5t10.5 -17.5q-6 -182 -8 -162q0 -10 -5.5 -34.5 t-5.5 -37.5q0 -27 19 -45q47 4 133 -8q8 -10 -14 -16q-137 0 -154 4q-25 12 -29 43q2 -12 2 51q-4 29 -2 113q2 72 -10 112q6 205 129 361q39 135 39 200q0 35 -6 70q-12 379 -12 389q-12 25 -23 47q-16 29 -41 23q-8 -8 -23 -35q0 -8 3 -129q0 -80 -25 -121q8 -51 6 -137 q-4 -100 -2 -133q-51 -12 -51 14z" />
<glyph unicode="3" horiz-adv-x="370" d="M53 639q16 14 47 16h52q2 0 45 13q27 6 32 28q8 41 -2 228q10 96 -2 250q-18 213 -18 251q-6 23 -17 23q-6 0 -24.5 -17.5t-28.5 -17.5q-4 -33 -20 -108q-16 -66 -17 -103q0 -51 23 -92q10 -20 6 -51q-8 -41 -6 -53q0 -18 8 -52t8 -53q0 -14 -4 -29q-29 -16 -53 -2 q-25 27 -25 78q0 18 3 49t3 43q-16 63 -8 203q8 164 -2 232l21 45q12 27 35 24q66 8 124.5 -23.5t83.5 -97.5q0 -29 5 -123q4 -76 4 -120q0 -135 -23 -217q4 -20 -5 -54.5t-5 -50.5l8 -70q4 -43 -6 -71q0 -10 -17.5 -31.5t-17.5 -32.5q0 -12 14 -20q37 -39 37 -96 q0 -29 -12 -86.5t-14 -81.5q-2 -33 2 -86q2 -66 2 -86q0 -88 -27 -142q-10 -2 -29.5 -11t-31.5 -9q-8 0 -17 4q-74 8 -94 55q4 43 -10 123q-14 90 -14 129q0 23 2 40t22 30q25 8 55 -27q8 -178 -10 -280q-4 -12 10.5 -20.5t28.5 -16.5q6 -2 43 4q12 35 12 92q-2 92 -2 98 q6 98 -12 293l-8 33q-6 20 -23 31q-20 0 -61 -4.5t-60 -4.5q-10 10 -10 25z" />
<glyph unicode="4" horiz-adv-x="370" d="M37 352q16 43 20 121q6 104 11 129q39 248 63 582q57 209 51 321q6 16 27 35q88 -8 100 -65q-10 -309 -61 -580q6 -209 22 -352q-2 -51 -2 -156q6 -4 37 -6q23 -2 29 -16q-6 -16 -33 -19q33 2 -39 2q-6 -61 -12 -121q-8 -72 -4 -116q-4 -6 -6 -50q0 -29 -31 -30 q-10 10 -10 71q-6 43 -2 123q6 90 4 131q-10 6 -58 -4q-33 -23 -96 -10zM102 383q35 4 93 14q0 35 3 103.5t3 101.5q2 140 -23 232q-16 -82 -47 -144q-8 -104 -29 -307z" />
<glyph unicode="5" horiz-adv-x="411" d="M33 1274q-4 80 0 233q16 23 57 23q59 -2 64 0q33 12 71 12q66 0 137 -37q19 -19 21 -39q-12 -27 -45 -26q-14 0 -41 5t-37 5q-14 0 -40.5 -8t-41.5 -8q-16 -180 -51 -543q10 -45 12 -119q2 -86 6 -113q137 4 177 -41q16 -53 16 -114q0 -94 -35 -187q-2 -31 4 -86 q6 -61 6 -86q0 -59 -24 -96q-66 -31 -119 -8q-70 49 -70 90q0 8 3 24.5t3 28.5q0 25 -12 79t-12 83q0 27 8 51q6 8 29 13q43 -8 41 -56v-20.5v-20.5q0 -20 6 -32q2 -14 0 -41q-2 -33 -2 -41q-6 0 -10 -9q0 -90 -2 -71q2 2 10 -9.5t10 -17.5q10 -8 37 -26q8 2 21.5 11 t21.5 11q-8 174 -2 279q-2 23 -2 94q-2 111 -41 160q-8 4 -17 4q-14 0 -37.5 -12.5t-35.5 -12.5t-25 12q-20 121 -33 330q-16 246 -26 332z" />
<glyph unicode="6" horiz-adv-x="364" d="M25 1405q33 94 108 123q125 14 207 -133q-33 -182 -23 -303q-8 -35 -8 -97q0 -72 -4 -96q-18 -23 -49 -10q-2 6 -8 14q8 43 8 98q0 27 -4 121q-6 78 -2 127q-6 45 -14 92q-10 55 -46 82q-29 -43 -36 -133q-12 -111 -21.5 -141.5t-7.5 -120.5q0 -80 -21 -119 q14 -82 31 -247q123 10 164 -19q35 -29 35 -76q0 -35 -35 -121q-12 -51 -12 -110q0 -43 8 -111q8 -82 10 -102q-2 -20 -6 -31q-6 -18 -20 -24q-12 2 -13.5 -10.5t-5.5 -14.5q-29 -27 -98 -8q-41 25 -51 80q-18 88 -21 94q-10 96 -14 176l-10 195q-2 74 -11 223 q-33 504 -30 602zM139 455q2 -47 15 -166q10 -104 10 -164q0 -37 39 -66q12 -12 16 2q-2 12 15.5 21.5t17.5 17.5q0 6 -2 11q-18 90 -21 231q-4 211 -6 233q-4 17 -14 27q-8 4 -14 4q-14 0 -21 -18q-6 -25 -12 -29q-27 -10 -21 -47q6 -45 -2 -57z" />
<glyph unicode="7" horiz-adv-x="376" d="M35 1495q29 57 106 57q25 0 71 -6t67 -6q65 -22 79 -67q-43 -178 -84 -357q-47 -215 -32 -360q-6 -68 -56 -260q-41 -164 -39 -254q-8 -61 -34 -181q-4 -6 -37 -10q0 4 -4 8q-2 51 12 150q14 106 14 159.5t37 196.5q33 129 37 223q2 47 25 271q18 162 8 270q-2 20 3 57 t5 52q0 25 -8 41q-57 -39 -107 -39q-29 0 -51 17.5t-12 37.5z" />
<glyph unicode="8" horiz-adv-x="376" d="M33 1382q20 125 112 148q18 25 48 24q16 0 65 -16q35 -21 82 -125q12 -43 12 -98q0 -31 -8 -123q-8 -76 -4 -123q-4 -100 -8 -203q-12 -117 -56 -190q-23 -8 -22 -14q0 -6 19.5 -16.5t21.5 -18.5q41 -37 41 -88q0 -33 -21 -88q-23 -66 -26 -86q6 -35 2 -111t4 -111 q-2 -20 -16 -45q-84 -31 -107 -28q-45 8 -66 51q-10 37 -20 76q-4 12 -4 24q0 10 3 30.5t3 31.5q0 25 -12 43q-4 18 -4 39q0 25 7 72.5t7 72.5q0 29 -6 53q2 37 67 103q-43 -8 -75 53q-8 27 -9 59q0 12 5 72q4 45 0 74q-29 84 -29 227q0 186 -6 231zM102 1122q0 -37 15 -98 q18 -72 20 -94q2 -25 -2 -70q-4 -53 -4 -74q0 -68 33 -104q8 8 18 4q18 -4 23 -4q35 8 43 57l12 82q-10 53 -3 172t-2 183.5t-17 132.5q-12 78 -43 125q-20 -14 -37 -52q-14 -29 -29 -57l-12 -129q-14 -33 -15 -74zM125 354q0 -33 10 -63q-8 -88 25 -172q2 0 4 -2l4 -4 q6 -8 14 -9q2 0 21 7q12 6 20 -5q16 27 17 68q0 16 -3.5 51t-3.5 51q0 18 3 33q-4 27 -2 88.5t-2.5 93t-9.5 64.5t-23 51q-47 -29 -52 -123q-23 -90 -22 -129z" />
<glyph unicode="9" horiz-adv-x="358" d="M31 1176l6 233q25 41 47 82q31 43 68 55q141 -8 174 -98q10 -106 10 -166q0 -102 -27 -174q2 -51 -16 -231q-12 -129 4 -205q-4 -45 5 -128t5 -124q-25 -61 -26 -156q-2 -129 -7 -149q-10 -6 -8 -25.5t-18 -23.5q-66 -20 -115 -5q-23 8 -41 39q2 53 -12 168 q-14 109 -10 168q8 14 43 6q20 -4 26 -22q0 -109 11 -318q18 -27 45 -16q35 20 34 70v24q-2 16 -2 25q0 31 11 49q-8 33 -2 98q6 72 0 105q-10 70 -9 145q-61 -6 -102 27q-57 49 -64 151q-8 170 -12 185q-18 78 -18 211zM109 840q18 -92 53 -170q8 -20 20 -21q10 0 26 17 l15 18q6 170 6 336q0 57 -4 188q-2 70 -8 211q-45 -33 -51 -104l-10 -119q16 -25 34 -51q-8 -55 -43 -174q-39 -127 -38 -131z" />
<glyph unicode="?" d="M35 1143q-6 147 0 274q8 37 18 74t43 47q182 -15 219 -111q18 -109 15 -176q-39 -70 -33 -200q8 -141 -16 -197q-2 -16 -17 -164q-8 -94 -37 -149q-31 -63 -39 -144q0 -72 -2 -143q-27 -10 -47 -2q2 90 -4 295q2 10 62 190q35 106 20 203q-4 150 2 231q-2 80 -18 244 q-8 27 -29 27q-10 0 -29.5 -8.5t-25.5 -8.5q2 -43 -8 -217q-8 -125 6 -196q-8 -20 -4 -56q4 -29 8 -59q-8 -10 -49 -14q-23 4 -25 18t-10 242zM137 74q43 20 80 8q8 -16 8 -12q-4 -20 -28 -29h-47q-18 18 -13 33z" />
<glyph unicode="A" horiz-adv-x="352" d="M25 168q0 20 8 63t8 66q0 14 -2 29q0 8 10 88q4 28 4 51t-4 41q-2 14 11.5 38.5t13.5 33.5q0 14 -23 24q-1 8 -1 17q0 23 4 56q5 46 5 66q0 33 -8 64v8q1 25 11 63q12 44 12 66q0 18 -6 37q4 -2 5 4t3 6q12 61 14 230q2 145 33 227q1 2 1 18t-1 47q-2 43 27 48h6 q61 0 86 -41q20 -33 20 -103q-4 -57 -8 -117q-1 -16 -1 -30q0 -43 9 -68q-27 -63 -27 -130q0 -34 7 -69q-2 -29 -4 -55q-4 -35 -19 -51q12 -12 29 -43q2 -49 6 -98t22 -84q0 -47 15.5 -132t15.5 -128q0 -27 -4 -52q-14 -29 -14 -67q0 -47 22 -101q4 -47 11 -137 q-14 -18 -48 -18q-8 2 -18 10q-8 76 -16 188l-17 211q-28 8 -84 8q-17 0 -35 -1q-2 -72 -14 -220q-8 -8 -4 -24q6 -20 4 -29q2 -6 -4 -31q-4 -20 10 -30q-5 -30 -5 -48q0 -13 3 -20q-27 -16 -59 -10q-12 15 -12 37q0 20 10 45q-8 20 -8 47zM119 598q0 -16 7 -47t7 -45 q16 -7 51 -7q14 0 31 1q-10 66 -20 248q-13 155 -31 247q0 -27 -7 -87t-7 -91q0 -29 4 -55q-6 -37 -19 -113q-16 -23 -16 -51z" />
<glyph unicode="B" horiz-adv-x="364" d="M20 1325v30q0 74 7 199q8 19 26 19q13 0 31 -10t49 -7q37 6 49 5q33 -14 101 -37q61 -63 63 -181q-3 -44 -3 -115q0 -35 1 -77q-2 -47 -27.5 -139t-25.5 -138q0 -47 20 -86q-27 -109 -88 -124q61 -25 88 -72v-43q0 -156 -26 -223q0 -27 8 -79t8 -79q0 -37 -10 -66 q-63 -43 -168 -47q-20 2 -23.5 20.5t-5.5 36t-2 40.5q0 18 2 56t2 56q0 57 -20 98q-19 104 -19 286v18v84q0 156 -6 221q-10 33 -10 92v102q0 53 -21 160zM96 1159q8 -103 8 -155q0 -26 -2 -39q2 0 23 -17q22 -54 21 -159q0 -44 -3 -97h4h4q56 0 64 58q8 49 14 98 q-3 11 -3 31q0 38 12 106q-16 70 -16 168q0 24 1 51q7 129 7 200q0 29 -1 48q4 14 -6 18q-33 20 -72 20q-19 0 -40 -5q6 -43 6 -123q-23 -56 -23 -143q0 -29 2 -60zM123 553q6 -41 10 -82q11 -33 11 -95q0 -56 -9 -134q23 -27 23 -72q2 -37 2 -76q0 -6 5 -6h3q10 2 12 2 q18 8 37 18q14 7 14 18q0 4 -2 9l-6 215q-2 80 -14 248q-25 39 -59 39q-9 0 -19 -4q-9 -25 -9 -57q0 -11 1 -23z" />
<glyph unicode="C" horiz-adv-x="364" d="M35 1255v32q0 96 10 188q14 59 70 61h98q25 -12 66 -55q2 -18 -7 -54q25 -23 30 -86t28 -84q0 -4 2 -34q0 -20 -2 -33q-2 -18 -13 -31q-37 -12 -16 -43q7 -68 8 -68v1q0 -39 -26 -54q-6 -2 -13 -2q-29 0 -32 43q0 41 2 80q0 55 -15.5 85t-15.5 79q0 16 2 47t2 47 q0 59 -18 99q-6 10 -37 4q-20 -57 -29 -183q37 -160 37 -200q0 -63 -29 -107q-14 -61 -14 -131q0 -53 14 -174q8 -66 8 -120q0 -81 -18 -134q-4 -12 0 -27q6 -25 6 -28q-1 -8 -1 -16q0 -37 14 -93q18 -68 18 -96q0 -18 -4 -37q4 -43 39 -57q14 0 32 30q2 35 2 211 q-8 35 3 54q10 6 34 -15q-2 -8 8.5 -18t10.5 -14q5 -32 5 -74q0 -50 -7 -115q-10 -8 -17.5 -34.5t-25.5 -37.5q-36 -15 -69 -15q-19 0 -36 5q-45 30 -45 69q0 11 -4 109q-1 15 -1 28q0 47 11 77q1 12 1 23q0 54 -17 75q4 14 4 29q0 20 -10 58t-12 56q-25 301 -31 680z" />
<glyph unicode="D" horiz-adv-x="376" d="M29 1532q12 16 30 16q12 0 36 -8l30 -10q9 1 18 1q87 0 147 -72q66 -79 66 -212q0 -51 -15 -152.5t-15 -150.5q0 -66 -21 -209q-6 -42 -6 -78q0 -59 16 -102q-4 -31 -4 -103v-53q0 -100 -12 -155q4 -16 4 -33q0 -27 -13.5 -73t-15.5 -66q-23 -18 -67 -25q-70 -10 -78 -12 q0 2 -6 5t-6 7q-9 69 -9 120q0 38 5 66q-2 61 -23 236q-13 118 -13 198q0 20 1 38q-4 106 -21 313q-5 18 -5 41q0 17 3 37q8 68 8 78q0 31 -10 55q-26 155 -26 253q0 27 2 50zM121 698q4 -6 16 -71q8 -42 8 -124v-34q22 -57 22 -123q0 -32 -5 -67q4 -20 -4 -60 q-10 -23 -11 -51v4q2 0 15 -102q20 2 61 8q6 35 23 102q-4 59 -10 180v50q0 75 4 149q-8 36 -8 90q0 39 4 86q9 104 9 164q0 20 -1 35q-14 64 -14 161q0 27 1 56q4 81 4 144t-4 108q-14 23 -26 45q-18 29 -37 29q-13 -1 -25 -13q5 -43 5 -91q0 -96 -21 -210 q18 -12 21.5 -37.5t5.5 -50.5q-8 -113 -23 -336q-12 -24 -12 -35q0 -4 2 -6z" />
<glyph unicode="E" horiz-adv-x="335" d="M29 1354l8 106q8 61 45 88q70 -2 104 -6q57 -4 105 -18q-8 -1 12 -11q8 -6 8 -18q0 -14 -8 -20q-40 -20 -102 -20q-15 0 -31 1q-10 -31 -15 -98.5t-12 -93.5q-2 -37 -24 -201q-8 -51 -8 -96q0 -50 10 -93q10 -45 14 -112q4 -92 6 -111q4 0 58 2q33 2 55 -12q4 -8 -14 -27 q-22 5 -43 5q-33 0 -62 -13q18 -130 18 -192q0 -16 -1 -27q7 -46 7 -104q0 -87 -16 -201q-2 -18 15 -21q6 -2 39 2q27 2 36 -4q16 -8 -6 -22q-91 -8 -116 -8h-7q-10 20 -10 45q0 14 6 55q6 35 4 57q-8 74 -6 78q-10 160 -24 481q-25 113 -31 304q-6 233 -14 305z" />
<glyph unicode="F" horiz-adv-x="311" d="M29 1520q8 23 37 20q41 -2 47 0q53 23 100 23q57 0 86 -39q-14 -31 -59 -37q-55 -8 -70 -23q6 -35 6 -71q0 -53 -31 -203q-18 -87 -18 -150q0 -30 4 -55q-2 -23 -2 -47q0 -27 4 -78t4 -76q0 -63 -22 -104q4 -2 67 -4q47 -2 68 -19q4 -27 -27 -26q-16 1 -40.5 1t-57.5 -1 q10 -14 12 -53q-1 -32 -1 -73q0 -122 5 -317q-8 -23 -8 -65q0 -51 -4 -66q-18 -12 -20 -12q-10 0 -19 8q8 28 8 50.5t-8 39.5q4 20 4 47q0 25 -5 75t-5 77q0 23 2 41q-3 23 -3 68q0 23 1 51v24q0 59 -8 95q-11 51 -11 86q0 18 3 32q-7 105 -7 184q0 39 2 72q1 16 1 37 q0 62 -5 162q-6 104 -30 326z" />
<glyph unicode="G" horiz-adv-x="339" d="M20 1337q8 115 70 179q25 14 51 14q67 0 135 -92q47 -162 48 -273q0 -45 -7 -86h-3q-34 0 -39 -43q-5 -45 -23 -45h-15.5t-15.5 13q0 -4 6 186q1 18 1 36q0 95 -19 163q-12 29 -47 77q-33 -11 -33 -55v-10q-4 -125 -23 -367q31 -86 31 -191v-24q-2 -100 -26 -194 q2 -23 2 -42q0 -56 -17 -83v-20q0 -34 4 -83q8 -72 9 -98q0 -29 -5 -53q-1 -28 -1 -70t1 -96q24 -24 74 -24q7 0 15 1q0 4 6 15q2 23 2 51q0 29 -4 89t-4 93q0 39 4 74q-2 4 -2 33q0 23 -17 26q-6 0 -16 3t-17 1q4 14 27 33q27 5 50 5q46 0 73 -21q-8 -16 -8 -53t-6 -50 q-2 -18 -19.5 -50t-17.5 -50q0 -6 2 -14q-2 -14 -2 -29q0 -18 4 -54t4 -53q0 -23 -4 -38q-10 -2 -20.5 -18.5t-24.5 -18.5q-6 0 -49 4q-33 0 -50 6q-25 10 -32 29q-14 139 -14 211q0 32 3 51q-18 74 -18 139q0 66 18 115q-14 43 -16 108v123q-2 27 -10 103q-10 66 -10 104 q0 66 20 123q-27 77 -27 153q0 19 2 37z" />
<glyph unicode="H" horiz-adv-x="387" d="M23 1446v55q2 37 24 45q29 -6 41 -12q20 -12 31 -35q4 -29 4 -61q0 -45 -9.5 -132t-9.5 -130q-12 -52 -12 -104q0 -70 21 -140q0 -39 10 -135q6 -66 6 -109v-20q16 0 46 -7.5t46 -9.5q4 -2 6 3t4 8q0 29 -4 206q-1 20 -1 45q0 74 5 185v207q2 98 9 227q10 20 30 20 q14 0 47 -14q23 -16 52 -57q-8 -74 -17 -148q-10 -86 -41 -131q-17 -58 -17 -140q0 -52 7 -114q6 -55 6 -101q0 -74 -16 -122q-4 -66 -10 -197l-9 -176q-10 -207 -12 -313q-4 -15 -14 -15q-6 0 -13 5q-8 33 -8 90q0 17 1 37q1 28 1 51q0 46 -4 72q-1 29 -1 68q0 98 7 257 q-4 2 -102 14q-1 -11 -1 -23q0 -37 5 -89q8 -84 8 -111l-10 -190q-1 -24 -1 -46q0 -66 9 -120q0 -10 -22 -14q-23 10 -23 59q1 6 1 13q0 23 -9 53q-12 40 -12 63l4 217v26q0 124 -17 226q-8 254 -36 764z" />
<glyph unicode="I" horiz-adv-x="163" d="M27 1536q14 12 30 12h2q30 0 62 -30q14 -14 26 -45v-8q0 -70 -32 -236q-20 -99 -20 -169q0 -41 7 -73q-2 -16 -2 -33q0 -33 13.5 -92t13.5 -90q0 -25 -6 -47q-25 -61 -25 -137q0 -33 6.5 -96.5t6.5 -96.5q0 -6 8 -18q-12 -153 -12 -249q0 -20 1 -38q-10 -10 0 -20 q-25 -8 -37 -8q-4 0 -6 1q-2 2 -8 15q-8 55 -8 134v32l4 187v-1q0 10 -8 485q0 66 -6 199q3 25 3 59q0 61 -10 151q-8 80 -8 137q0 44 5 75z" />
<glyph unicode="J" horiz-adv-x="317" d="M20 432q0 20 5 37q23 12 57 2q6 -2 14 -12q-2 -37 -16 -109q4 -18 4 -37q0 -20 -5 -57t-5 -53q0 -23 6 -41q0 -61 29 -90q18 2 38.5 3t22.5 17q2 37 23 103v11q0 50 -15 134q-1 21 -1 52q0 128 20 423q8 119 8 245v50q-2 197 -25 350q2 27 6 56.5t23 37.5h9q56 0 81 -61 v-9q0 -72 -27 -259q-15 -92 -15 -163q0 -60 11 -106q-12 -162 -45 -483q4 -16 4 -35q0 -18 -6 -56t-6 -56q0 -27 8 -47q2 -15 2 -40t-2 -59q2 -4 -2 -53q0 -18 -20.5 -34.5t-38.5 -31.5q-12 2 -35 -3t-31 -5q-23 0 -35 19q-31 33 -32 94v102q4 16 4 35q0 20 -6.5 63.5 t-6.5 65.5z" />
<glyph unicode="K" horiz-adv-x="405" d="M43 1350q-1 38 -1 73q0 70 5 127q14 8 31 9q27 0 74 -37q18 -20 19 -71q0 -25 -5 -58q1 -10 1 -22q0 -51 -22 -120q-28 -87 -28 -126q0 -32 8 -60q0 -16 8 -39q12 -29 14 -35v-23q0 -101 -16 -194v-13q0 -28 6 -77q4 -2 15 8q16 260 88 623q2 14 53 250q12 8 26 8 q52 -1 72 -64q-6 -72 -72 -219q-57 -125 -57 -205v-10q-18 -141 -51 -426q29 -39 38 -121t30 -114q-2 -18 -2 -38q0 -54 12 -124q20 -117 22 -152q-2 -6 -32 -6q-14 33 -27.5 103.5t-24 100.5t-24.5 132q-14 86 -41 133q0 10 -10 29q-1 -3 -1 -8q0 -19 15 -58 q-12 -92 -14 -172v-31q0 -75 8 -124q-6 -98 -6 -97q-17 -8 -24 -8h-3q-31 27 -31 78q0 10 2 31v30q0 33 -8 56q-1 12 -1 32q0 69 11 228q-18 86 -26 282q-12 172 -31 519z" />
<glyph unicode="L" horiz-adv-x="251" d="M31 1438q0 23 20 116q8 4 21 5q49 -1 80 -60q-2 -45 -23 -239q-9 -84 -9 -150q0 -50 5 -90q-8 -31 -8 -68q0 -27 18 -145q5 -36 5 -67q0 -72 -29 -115q-2 -22 -2 -50q0 -67 10 -174q5 -54 6 -96q0 -57 -10 -94q0 -16 6 -51t4 -54q6 -6 16 0q12 6 19 5q11 1 21 1 q27 0 46 -8q3 -4 3 -7q0 -8 -21 -11q-10 0 -45 -4q-16 -1 -27.5 -1t-19.5 1q-27 2 -41 18q-12 65 -12 165q0 44 2 95q7 131 7 217q0 57 -3 95q-2 27 -25 540q-14 192 -14 226z" />
<glyph unicode="M" horiz-adv-x="446" d="M39 1313q-7 65 -7 119q0 67 11 116q10 8 20 8q16 0 41 -22q35 -31 37 -33q20 -57 21 -149q-1 -41 -1 -72q0 -61 3 -80q-4 -188 -4 -221q4 -115 26 -191q4 -29 5 -96q0 -22 -1 -49q-1 -18 -1 -34q0 -69 14 -111q48 156 48 301q0 38 -3 75q23 215 80 644q31 51 43 51 q10 0 22 -13q2 -4 29 -24q14 -57 14 -145q0 -29 -2 -62q-4 -66 -7 -187.5t-15 -258.5q-12 -129 -43 -217q6 -27 6 -54q0 -57 -25 -100l4 -74q4 -43 21 -65q0 -88 -17 -256q-4 -4 -28 -4l-8 8q-8 52 -8 127q0 22 1 47q6 182 7 194q-5 58 -5 125v23q0 18 11 133q4 50 4 93 q0 28 -2 52q-16 -68 -35 -233q-16 -152 -41 -234q5 -33 5 -81.5t-5 -112.5q0 -23 -16 -141q-14 -14 -39 0q-8 16 -9 36q0 4 7 50q2 31 -4 51q-4 45 -25 131q0 47 -12 151q-9 89 -9 152v12q-4 43 -26 123q-1 -12 -1 -30q0 -63 11 -199q4 -47 4 -86q0 -71 -12 -117 q-4 -25 -4 -55q0 -37 9 -110t9 -105q-4 -2 -13 -10.5t-18 -8.5q-14 0 -26 19q-10 92 -14 211q-1 35 -1 69q0 87 7 174q4 53 4 113.5t-4 128.5q-8 168 -33 504z" />
<glyph unicode="N" d="M20 1538q12 10 27 10q39 0 74 -55q-1 -15 -1 -33q0 -87 17 -225q20 -180 21 -258q35 -88 42 -232q8 -199 13 -235q8 47 9 144.5t7 144.5q7 62 7 275v56l-3 189q0 111 9 199q12 34 27 34h1q61 -23 62 -112q0 -28 -8 -88q-7 -49 -7 -74v-10q-10 -37 -17 -110t-17 -107 q0 -31 2 -92.5t2 -92.5q-4 -61 -11 -182q-3 -63 -3 -118q0 -28 1 -54q0 -29 3.5 -89.5t3.5 -92.5q0 -102 -17 -164q6 -14 4 -33q-4 -33 -5 -34t-12 -10q-8 -6 -15 -6l-7 1q-33 86 -45 209q-10 106 -18 213q-10 35 -19.5 117t-19.5 118q-2 -2 -21 -49q0 -45 15 -272 q5 -71 5 -125q0 -65 -7 -107q0 -8 4 -38q2 -23 0 -35q-4 -20 -21 -31q-2 0 -6 1t-8 -1q-20 88 -20 219q0 39 2 123t2 129q-10 61 -10.5 236.5t-12.5 275.5q-10 90 -16 236q-10 197 -13 235z" />
<glyph unicode="O" d="M29 1384q4 123 67 154q27 12 56 12h2q97 0 155 -112q7 -33 7 -103q0 -58 -5 -141q-4 -14 -24 -55q-16 -33 -17 -54q0 -20 17 -36q10 -39 10 -84q0 -14 -8 -115q-3 -27 -3 -51q0 -35 7 -62q1 -17 1 -37q0 -57 -8 -135q-10 -90 -10 -136v-15q1 -25 1 -51q0 -110 -21 -224 q-8 -39 -82 -61q-18 6 -57 14q-39 16 -39 64v20q2 14 2 21q0 25 -8 41q-12 86 -13 219q-2 188 -4 221q3 24 3 64.5t-3 97t-3 100t3 74.5q-27 231 -27 338q0 18 1 32zM96 987q2 -37 23 -53q7 -102 7 -182t-7 -140q1 -34 1 -83t-1 -113q-2 -160 -2 -176q2 -10 2 -23 q0 -10 -2 -29.5t-2 -29.5q0 -27 14 -45q10 8 47 2q31 -6 41 10q4 57 16 184q-10 74 -14 174q4 137 6 410q-6 80 -12 248q4 36 4 88q0 65 -6 157q-33 8 -39 39q-23 -27 -29 -70.5t-12 -84.5q-31 -35 -31 -107q0 -102 -2 -114q0 -66 -1 -66t-1 4z" />
<glyph unicode="P" horiz-adv-x="329" d="M10 1550q2 4 6 5t4 4q43 2 68 2q156 -1 215 -97q10 -82 10 -145q0 -100 -24 -174q-14 -41 -14 -104q0 -29 3 -62q3 -40 3 -72q0 -53 -9 -84q0 -18 -10 -51v-14q0 -23 -4 -53q-8 -47 -8 -62q0 -16 4 -29q0 -37 -45 -49q-16 -8 -41 4q-18 -25 -51 -20q-6 -6 -4 -12v-21 q0 -60 8 -194q2 -31 1 -59q0 -75 -11 -126q-2 -4 2 -22q2 -12 -15 -15q-3 -1 -5 -1q-16 0 -25 22v29q0 132 -15 372q-8 55 -14 197q-10 225 -10 450v134q-2 92 -2 143q-6 43 -17 104zM76 868q0 -53 18 -135q20 -100 25 -131q16 23 65 35q14 18 18.5 47t6.5 55 q-11 52 -11 126q0 37 3 79q8 128 8 202v28l4 147q1 16 1 32q0 69 -15 115q-14 10 -35 11q-8 0 -41 -4q-25 -6 -41 -2q2 -14 2 -35.5t-2 -48.5q43 -72 43 -158q0 -51 -20.5 -146.5t-22.5 -142.5q-6 -35 -6 -74z" />
<glyph unicode="Q" horiz-adv-x="329" d="M25 1155q4 104 6 307q37 88 92 103q68 -23 92 -35q47 -27 74 -72q23 -79 23 -159q0 -14 -1 -29q-6 -104 -47 -166q-1 -9 -1 -20q0 -30 9 -70q12 -63 13 -84q-14 -72 -39 -217q0 -23 20 -215q4 -42 4 -78q0 -67 -14 -115q-8 -27 -10 -115q-2 -68 -31 -104q0 -2 16 -80 q-6 -10 -18 -10q-8 0 -12 4q-10 20 -41 55q0 12 -21 13h-30q-8 4 -11 14q-18 23 -37.5 48.5t-17.5 49.5q5 23 5 72v16v10q0 54 11 82q4 8 4 19q0 10 -8 32.5t-6 39.5q0 250 -12 503q0 8 -12 201zM84 1202q11 -32 11 -77q0 -13 -1 -27q-4 -63 -4 -92v-15q23 -104 23 -157 q0 -41 -9 -74v-29q0 -55 -5 -142q-4 -71 -4 -120q0 -28 1 -49q5 -10 5 -31q0 -28 -9 -76q4 -16 4 -34q0 -16 -5 -50t-5 -51q0 -49 45 -76q0 6 -1 18.5t-3 18.5q6 12 32 12q14 0 34 -4q8 10 8 39q0 168 -4 506q-8 39 -9 84q0 35 11 133q7 63 7 111q0 20 -1 37q-4 100 -6 198 q-4 117 -27 197q-8 -33 -53 -123q-35 -70 -35 -122v-5z" />
<glyph unicode="R" horiz-adv-x="335" d="M23 1548q6 12 16 13q4 0 12 -2.5t12 -2.5q8 0 15 9q9 1 18 1q87 0 191 -71q12 -18 4 -51q18 -27 18 -68q0 -16 -3 -49t-3 -49t2 -29q12 -54 11.5 -120.5t-11.5 -145.5q-14 -80 -37 -231v-90q-4 -51 -45 -72q37 -23 68 -98q-18 -70 -25 -201q-6 -141 -18 -203 q-10 -8 -23 -8q-6 0 -12 2q-16 14 -14 43q4 45 4 47q6 46 6 124v42q-2 60 -2 102t2 68q-2 4 -8 31q-6 18 -23 20q-4 0 -47 -10q6 -37 6 -82q0 -31 -6 -117q-4 -42 -4 -73q0 -21 2 -37q-4 0 -4 -2q1 -11 1 -24q0 -39 -9 -99q-2 -6 4 -19.5t6 -19.5q0 -10 -18 -10q-2 2 -9 2 h-10q-8 12 -8 28q0 10 7 39t3 45q-10 86 -26 266q-4 60 -4 116q0 102 12 192q-10 53 -11.5 166.5t-11.5 173.5q-2 59 -12 215zM109 1116q-2 -23 -2 -45q0 -75 22 -129q-4 -63 -12 -184q-1 -19 -1 -37q0 -72 13 -127q10 -1 17 -1q15 0 20 5q47 29 47 94q0 18 -5 57t-5 60 q0 18 4 35q14 121 16 270v31q0 100 -10 287q-2 29 -29 26q-37 -2 -45 6q1 -23 1 -43q0 -80 -13 -114q-6 -63 -18 -191z" />
<glyph unicode="S" horiz-adv-x="335" d="M33 1255q2 62 2 108t-2 75q16 96 76 116q12 2 24 2q57 0 107.5 -45t50.5 -102q0 -14 -6 -59q-4 -37 -2 -60q-10 -14 -11 -30q0 -10 8.5 -37t4.5 -43q-9 -24 -9 -58q0 -38 11 -88q-6 -39 8 -49q3 -22 3 -43q0 -43 -11 -84q-33 -16 -58 -2l-12 12v16q0 42 8 105 q10 84 11 123q-7 29 -7 162v35v8q0 115 -57 172q-35 -2 -43 -43t-14 -78q2 -18 2 -39q1 -45 -19 -128q-18 -75 -18 -119v-9q-12 -10 -8 -31q4 -27 2 -32q37 -29 37 -101v-33q0 -61 6 -77q33 -29 57 -84q18 -45 39 -90q0 -41 27.5 -110t27.5 -103q0 -25 -8 -47q6 -25 6 -54 q0 -27 -7 -78t-7 -73q-4 -14 -19 -45q-18 -20 -59 -33q-33 0 -59 14q-33 27 -37 78q1 -20 2 -20q2 0 2 110q0 29 -12 117q-10 64 -10 107q0 11 1 20q10 20 33 4q27 -8 33 -39v-51q0 -2 -12 -78q-3 -22 -3 -42t3 -36q-10 -14 -11 -33q0 -14 12.5 -44.5t12.5 -45.5 q4 -2 14.5 -17t24.5 -11q18 8 37 35q-1 10 -1 22q0 37 9 92q12 84 12 123q0 31 -4 57q-57 125 -166 377q-2 20 -10 90q-8 59 -8 95q0 33 6 57q-6 18 -6 20q-5 39 -5 103q0 31 1 69z" />
<glyph unicode="T" horiz-adv-x="317" d="M23 1520q38 32 122 32q19 0 41 -2q6 -2 12.5 -7t14.5 -5t25.5 3t25.5 3q16 0 27 -14q16 -32 16 -52q0 -10 -4 -18q-8 -12 -29 -20q-27 -10 -30 -13q-12 -129 -35 -389q-2 -66 -4 -131q-2 -78 -19 -123q14 -20 11 -55q-4 -47 -2 -59q22 -52 22 -123q0 -30 -4 -62 q-11 -107 -11 -151q0 -13 1 -21q-4 -10 -8 -30q2 -14 1 -36q0 -32 -3 -81q-1 -25 -1 -45q0 -41 5 -64q-7 -2 -13 -2q-14 0 -22 13q-7 31 -7 91v15v20q0 57 -5 85q-6 152 -7 313v180q0 141 -4 422q-2 65 -2 117q0 79 4 131q-17 -2 -31 -2q-51 0 -71 28q-16 12 -16 52z" />
<glyph unicode="U" horiz-adv-x="376" d="M33 1337v41q0 101 8 176q12 10 27 11q40 -1 75 -62q1 -8 1 -17q0 -52 -21 -124q-25 -90 -25 -129q0 -18 2 -35q16 -100 17 -321q0 -211 22 -320q6 -30 6 -96v-35q0 -86 15 -131q0 -23 -6.5 -65t-6.5 -62q0 -27 9 -49q4 -41 30 -53q23 18 39 6q29 43 29 110q0 16 -3 62 q-2 27 -2 46q0 13 1 23q6 121 6 252q0 47 -2 147.5t-2 151.5q0 45 2 144.5t2 152.5q0 104 -4 346q4 18 8 39t19 21h3q41 0 76 -62v-16q0 -90 -20 -256q-8 -72 -16 -246q-6 -76 -11 -151q-2 -29 -2 -54q0 -52 8 -92q-2 -39 -6 -131q-10 -72 -20 -219q0 -27 3 -78t3 -74 q0 -82 -33 -129q-8 -10 -31.5 -13t-31.5 -11h-5q-24 0 -59 31q-12 20 -17 69t-16 70q-20 164 -26 450q1 7 1 16q1 23 -7 57q-10 46 -11 67v26q0 94 -12 246q-14 190 -16 270z" />
<glyph unicode="V" horiz-adv-x="387" d="M23 1552q12 10 28 11q31 0 76 -47q23 -47 23 -109q0 -74 -35 -170v-9q0 -104 41 -349q14 -82 14 -230v-62q0 -116 6 -169q2 0 2 2h2q8 121 19 244q6 89 6 162q0 44 -2 81q25 117 39 322q18 238 30 321q6 14 19 15q-6 0 37 -11q43 -31 43 -92q0 -31 -15 -84 q-16 -70 -18 -78q-74 -442 -74 -679q-14 -41 -16 -115q-4 -80 -12 -111q-37 -139 -37 -235q0 -33 4 -64q-4 -12 -21 -37q-4 2 -15 6.5t-15 6.5q-18 80 -23 231q-2 162 -16 234q-16 168 -45 501q-4 68 -13 207q-4 49 -32 307z" />
<glyph unicode="W" horiz-adv-x="540" d="M31 1481q0 33 4 61q4 18 22 19q18 0 35 -15q41 -16 49 -69v1q-2 0 -2 -89q-3 -21 -3 -53q0 -64 11 -173q5 -51 5 -92q0 -64 -13 -104q-2 -35 31 -84q4 -41 14 -109q20 76 35 199q23 178 27 201q0 18 -15 192q-5 67 -5 121q0 41 3 74q10 10 23 10q27 0 70 -51q3 -41 3 -91 q0 -68 -6 -151q-8 -119 -18 -240q14 -86 23 -231q10 -170 18 -232q-2 4 6 9q28 182 28 269q0 16 -1 28q23 119 33 325q12 242 22 326q10 12 23 12q4 0 45 -18q10 -12 26 -39q-12 -244 -67 -426q-2 -139 -31 -266q8 -34 8 -75q0 -61 -18 -136q-33 -139 -33 -197v-6 q-8 -78 -29 -225q-2 -8 -2 -50q0 -31 -16 -40q-10 -2 -12 4q-2 4 0 12q2 12 2 14q-2 39 -11 119q-14 82 -23 256t-26 262q-2 2 -4 0q-51 -268 -55 -418q-2 -8 -10 -26q6 -62 6 -166v-55q-7 -11 -18 -11q-6 0 -13 4q-25 96 -31 248l-12 250q-8 104 -29 209v12q0 68 -20 193 q-18 116 -18 186q0 13 1 25q-2 29 -18 143q-14 94 -14 154z" />
<glyph unicode="X" horiz-adv-x="382" d="M31 1483q2 29 16 78q4 1 9 1q32 0 77 -59q8 -16 6 -45q-4 -53 -4 -47q0 -72 -4 -227q31 -86 47 -281q8 8 10 40t5 40q27 94 45 281q20 217 34 288q10 4 19 4q14 0 61 -34l19 -43q-29 -90 -56 -226q-20 -115 -43 -229q-31 -82 -36 -221q-8 -172 -19 -223q20 -119 53 -531 q-10 -8 -32 -2q-14 25 -16.5 81t-12.5 79q-4 74 -29 219q-12 -82 -49 -240q3 -26 3 -44t-3 -27q-10 -14 -12 -35q0 -33 -2 -37q-18 0 -17 -2q-20 6 -10 20q8 29 8 85v23v23q0 55 8 84q4 143 52 279v12q0 45 -13 115q-18 111 -20 135q-10 100 -37 309q-10 74 -57 357z" />
<glyph unicode="Y" horiz-adv-x="382" d="M29 1554q10 10 24 11q14 0 25 -11q27 -14 45 -49q2 -37 20 -119q15 -73 15 -116q-9 -59 -9 -138q0 -46 3 -98q5 -98 5 -160q0 -31 -1 -53q8 -31 12 -30q6 2 8 20q16 106 45 334q12 133 45 401q10 16 49 0q32 -19 32 -77q0 -17 -3 -37q-39 -264 -106 -564q-2 -27 -35 -198 q2 -31 2 -68q0 -86 -10 -209q-14 -201 -15 -274q2 -20 2 -64q-11 -6 -18 -6q-5 0 -8 4q-8 10 -7 39t-4 39q-10 29 -10 66q0 29 8.5 83t8.5 82q-13 50 -13 123q0 40 4 86q0 25 -12 103q-8 55 -8 92v14q-31 258 -94 774z" />
<glyph unicode="Z" horiz-adv-x="352" d="M37 1516q2 2 5 6t5 6q61 0 180 -2q8 22 27 22h2q14 0 37 -10q39 -22 45 -49q-10 -45 -19 -119q-8 -80 -14 -113q-16 -84 -61 -243q0 -18 -9.5 -51t-9.5 -50q0 -14 4 -26q12 -25 13 -56q0 -6 -27 -124q-27 -37 -25 -56q6 -29 7 -59q0 -33 -9.5 -97.5t-9.5 -95.5 q0 -23 4 -43q-4 -6 6 -28q-2 -53 -18 -129q-23 -100 -25 -119q12 -8 45 -6t45.5 0t20.5 -15q2 -6 -18 -12q-17 1 -33 1q-42 0 -82 -7q-8 -4 -14 -4q-12 0 -12 35q0 11 1 26q23 96 33 262q4 104 21 316q12 96 24 336q14 262 35 403q-10 16 -51 14t-54 7q-23 14 -46 31.5 t-23 48.5z" />
<glyph unicode="a" horiz-adv-x="352" d="M25 127q0 20 8 63t8 66q0 14 -2 29q0 8 10 88q4 28 4 50.5t-4 41.5q-2 14 11.5 38.5t13.5 33.5q0 14 -23 24q-1 8 -1 17q0 23 4 56q5 46 5 66q0 33 -8 64v8q1 25 11 63q12 44 12 66q0 18 -6 37q4 -2 5 4t3 6q12 61 14 230q2 145 33 227q1 2 1 18.5t-1 46.5q-2 43 27 48h6 q61 0 86 -41q20 -33 20 -103q-4 -57 -8 -117q-1 -17 -1 -31q0 -43 9 -67q-27 -63 -27 -130q0 -34 7 -68q-2 -29 -4 -56q-4 -35 -19 -51q12 -12 29 -43q2 -49 6 -98t22 -84q0 -47 15.5 -132t15.5 -128q0 -27 -4 -52q-14 -29 -14 -67q0 -47 22 -100q4 -47 11 -138 q-14 -18 -48 -18q-8 2 -18 10q-8 76 -16 189l-17 210q-28 8 -84 8q-17 0 -35 -1q-2 -72 -14 -220q-8 -8 -4 -24q6 -20 4 -29q2 -6 -4 -31q-4 -20 10 -30q-5 -30 -5 -48q0 -13 3 -20q-27 -16 -59 -10q-12 15 -12 37q0 20 10 45q-8 20 -8 47zM119 557q0 -16 7 -47t7 -45 q16 -7 51 -7q14 0 31 1q-10 66 -20 248q-13 155 -31 247q0 -27 -7 -87t-7 -91q0 -29 4 -55q-6 -37 -19 -113q-16 -23 -16 -51z" />
<glyph unicode="b" horiz-adv-x="364" d="M20 1305v30q0 74 7 199q8 19 25 19q13 0 32 -11q18 -10 49 -6q37 6 49 4q33 -14 101 -37q61 -63 63 -180q-3 -44 -3 -115q0 -36 1 -78q-2 -47 -27.5 -139t-25.5 -137q0 -47 20 -86q-27 -109 -88 -125q61 -25 88 -72v-43q0 -156 -26 -223q0 -27 8 -79t8 -79q0 -37 -10 -65 q-63 -43 -168 -47q-20 2 -23.5 20.5t-5.5 36t-2 39.5q0 18 2 56t2 57q0 57 -20 98q-19 104 -19 285v18v84q0 156 -6 221q-10 33 -10 92v103q0 53 -21 160zM96 1139q8 -103 8 -155q0 -26 -2 -40q2 0 23 -16q22 -54 21 -159q0 -44 -3 -97h4h4q55 0 64 57q8 49 14 98 q-3 11 -3 31q0 38 12 107q-16 70 -16 168q0 24 1 51q7 129 7 200q0 29 -1 48q4 14 -6 18q-32 19 -71 19q-20 0 -41 -5q6 -43 6 -123q-23 -56 -23 -143q0 -28 2 -59zM123 532q6 -41 10 -81q11 -33 11 -95q0 -56 -9 -135q23 -27 23 -71q2 -37 2 -76q0 -6 5 -6h3q10 2 12 2 q18 8 37 17q14 7 14 18q0 4 -2 10l-6 215q-2 80 -14 248q-24 38 -57 38h-2q-9 0 -19 -4q-9 -25 -9 -57q0 -11 1 -23z" />
<glyph unicode="c" horiz-adv-x="364" d="M35 1235v32q0 96 10 187q14 59 70 62h98q25 -13 66 -56q2 -18 -7 -53q25 -23 30 -86.5t28 -83.5q0 -4 2 -35q0 -20 -2 -33q-2 -18 -13 -30q-37 -12 -16 -43q7 -69 8 -69v1q0 -39 -26 -53q-6 -2 -13 -2q-29 0 -32 43q0 41 2 80q0 55 -15.5 84.5t-15.5 79.5q0 16 2 46.5 t2 47.5q0 59 -18 98q-6 10 -37 4q-20 -57 -29 -182q37 -160 37 -201q0 -63 -29 -106q-14 -61 -14 -131q0 -53 14 -174q8 -66 8 -120q0 -81 -18 -134q-4 -12 0 -27q6 -25 6 -29q-1 -8 -1 -16q0 -36 14 -92q18 -68 18 -97q0 -18 -4 -36q4 -43 39 -58q14 0 32 31q2 35 2 211 q-8 35 3 53q10 6 34 -14q-2 -8 8.5 -18.5t10.5 -14.5q5 -32 5 -74q0 -50 -7 -114q-10 -8 -17.5 -35t-25.5 -37q-36 -15 -69 -15q-19 0 -36 5q-45 30 -45 68q0 11 -4 110q-1 15 -1 28q0 46 11 76q1 12 1 23q0 54 -17 76q4 14 4 28q0 20 -10 58.5t-12 56.5q-25 301 -31 680z " />
<glyph unicode="d" horiz-adv-x="376" d="M29 1511q12 16 30 17q12 0 36 -8.5t30 -10.5q9 1 18 1q87 0 147 -72q66 -78 66 -211q0 -51 -15 -152.5t-15 -150.5q0 -66 -21 -209q-6 -42 -6 -78q0 -59 16 -102q-4 -31 -4 -103v-53q0 -100 -12 -156q4 -16 4 -33q0 -27 -13.5 -72.5t-15.5 -66.5q-23 -18 -67 -24 q-70 -10 -78 -13q0 2 -6 5.5t-6 7.5q-9 69 -9 120q0 38 5 66q-2 61 -23 236q-13 118 -13 197q0 20 1 38q-4 106 -21 313q-5 18 -5 41q0 17 3 37q8 68 8 78q0 31 -10 55q-26 155 -26 253q0 27 2 50zM121 678q4 -6 16 -72q8 -42 8 -123v-34q22 -57 22 -124q0 -32 -5 -67 q4 -20 -4 -59q-10 -23 -11 -52v4q2 0 15 -102q20 2 61 8q6 35 23 103q-4 59 -10 180v50q0 75 4 149q-8 36 -8 90q0 39 4 86q9 103 9 163q0 20 -1 35q-14 64 -14 161q0 27 1 56q4 81 4 144t-4 108q-14 23 -26 45q-18 29 -37 29q-13 0 -25 -12q5 -43 5 -91q0 -96 -21 -210 q18 -12 21.5 -38t5.5 -50q-8 -113 -23 -336q-12 -24 -12 -35q0 -4 2 -6z" />
<glyph unicode="e" horiz-adv-x="335" d="M29 1333q4 53 8 107q8 61 45 88q70 -2 104 -6q57 -4 105 -19q-8 0 12 -10q8 -6 8 -18q0 -14 -8 -21q-38 -20 -98 -20q-17 0 -35 2q-10 -31 -15 -98.5t-12 -94.5q-2 -37 -24 -201q-8 -51 -8 -96q0 -50 10 -92q10 -45 14 -113q4 -92 6 -110q4 0 58 2q33 2 55 -12 q4 -8 -14 -27q-22 5 -43 5q-33 0 -62 -13q18 -130 18 -192q0 -16 -1 -27q7 -46 7 -104q0 -87 -16 -202q-2 -18 15 -20q6 -2 39 2q27 2 36 -4q16 -8 -6 -23q-91 -8 -116 -8h-7q-10 20 -10 45q0 14 6 56q6 35 4 57q-8 74 -6 78q-10 160 -24 481q-25 113 -31 303 q-6 233 -14 305z" />
<glyph unicode="f" horiz-adv-x="311" d="M29 1499q8 23 37 21q41 -2 47 0q51 22 96 22h4q57 0 86 -39q-14 -31 -59 -37q-55 -8 -70 -22q6 -35 6 -72q0 -53 -31 -203q-18 -87 -18 -150q0 -30 4 -54q-2 -23 -2 -47q0 -27 4 -78.5t4 -75.5q0 -63 -22 -105q4 -2 67 -4q47 -2 68 -18q4 -27 -27 -27q-17 1 -41 1t-57 -1 q10 -14 12 -53q-1 -32 -1 -73q0 -121 5 -316q-8 -23 -8 -66q0 -51 -4 -65q-18 -12 -20 -12q-10 0 -19 8q8 27 8 50t-8 40q4 20 4 47q0 25 -5 75t-5 77q0 23 2 40q-3 23 -3 68q0 23 1 51v24q0 59 -8 95q-11 51 -11 87q0 18 3 32q-7 105 -7 184q0 39 2 72q1 17 1 37 q0 62 -5 162q-6 104 -30 325z" />
<glyph unicode="g" horiz-adv-x="339" d="M20 1317q8 115 70 178q25 14 51 14q67 0 135 -92q47 -162 48 -272q0 -45 -7 -86h-3q-34 0 -39 -43q-5 -45 -23 -45h-15.5t-15.5 12q0 -4 6 186q1 18 1 36q0 95 -19 163q-12 29 -47 78q-33 -11 -33 -56v-10q-4 -125 -23 -366q31 -86 31 -191v-24q-2 -100 -26 -195 q2 -23 2 -42q0 -56 -17 -83v-20q0 -33 4 -82q8 -72 9 -98q0 -29 -5 -54q-1 -29 -1 -70t1 -96q23 -23 70 -23q9 0 19 1q0 4 6 14q2 23 2 51q0 29 -4 89.5t-4 93.5q0 39 4 73q-2 4 -2 33q0 23 -17 27q-6 0 -16 3t-17 1q4 14 27 33q27 5 49 5q46 0 74 -22q-8 -16 -8 -53t-6 -49 q-2 -18 -19.5 -50t-17.5 -50q0 -6 2 -15q-2 -14 -2 -28q0 -18 4 -54.5t4 -52.5q0 -23 -4 -39q-10 -2 -20.5 -18.5t-24.5 -18.5q-6 0 -49 4q-33 0 -50 6q-25 10 -32 29q-14 139 -14 211q0 32 3 51q-18 74 -18 140t18 114q-14 43 -16 109v123q-2 27 -10 102q-10 66 -10 105 q0 66 20 122q-27 77 -27 154q0 18 2 37z" />
<glyph unicode="h" horiz-adv-x="387" d="M23 1425v56q2 37 24 45q29 -6 41 -13q20 -12 31 -34q4 -29 4 -62q0 -45 -9.5 -132t-9.5 -130q-12 -52 -12 -104q0 -70 21 -140q0 -39 10 -135q6 -66 6 -109v-20q16 0 46 -7t46 -9q4 -2 6 3t4 7q0 29 -4 207q-1 20 -1 45q0 74 5 184v207q2 98 9 227q10 20 30 21 q14 0 47 -14q23 -17 52 -58q-8 -74 -17 -147q-10 -86 -41 -131q-17 -58 -17 -140q0 -52 7 -114q6 -55 6 -101q0 -74 -16 -122q-4 -66 -10 -197l-9 -176q-10 -207 -12 -314q-4 -15 -14 -15q-6 0 -13 5q-8 33 -8 90q0 17 1 37q1 28 1 51q0 46 -4 72q-1 29 -1 68q0 98 7 258 q-4 2 -102 14q-1 -11 -1 -23q0 -37 5 -90q8 -84 8 -110l-10 -191q-1 -24 -1 -46q0 -66 9 -120q0 -10 -22 -14q-23 10 -23 59q1 5 1 13q0 22 -9 53q-12 41 -12 64l4 217v26q0 124 -17 226q-8 254 -36 763z" />
<glyph unicode="i" horiz-adv-x="163" d="M27 1516q14 12 30 12q31 0 64 -31q14 -14 26 -45v-8q0 -70 -32 -236q-20 -99 -20 -169q0 -41 7 -72q-2 -16 -2 -33q0 -33 13.5 -92.5t13.5 -89.5q0 -25 -6 -47q-25 -61 -25 -138q0 -33 6.5 -96t6.5 -96q0 -6 8 -19q-12 -153 -12 -248q0 -20 1 -38q-10 -10 0 -21 q-24 -7 -35 -7q-5 0 -8 1q-2 2 -8 14q-8 55 -8 134v32l4 188v-1q0 10 -8 485q0 66 -6 199q3 25 3 59q0 61 -10 151q-8 80 -8 137q0 44 5 75z" />
<glyph unicode="j" horiz-adv-x="317" d="M20 412q0 20 5 37q23 12 57 2q6 -2 14 -13q-2 -37 -16 -108q4 -18 4 -37q0 -20 -5 -57t-5 -54q0 -23 6 -41q0 -61 29 -90q18 2 38.5 3t22.5 18q2 37 23 102v11q0 50 -15 134q-1 21 -1 52q0 128 20 424q8 119 8 245v50q-2 197 -25 350q2 27 6 56.5t23 37.5h9q56 0 81 -61 v-9q0 -72 -27 -260q-15 -92 -15 -163q0 -60 11 -105q-12 -162 -45 -483q4 -16 4 -35q0 -18 -6 -56t-6 -57q0 -27 8 -47q2 -16 2 -40t-2 -58q2 -4 -2 -54q0 -18 -20.5 -34.5t-38.5 -30.5q-12 2 -35 -3t-31 -5q-23 0 -35 18q-31 33 -32 94v103q4 16 4 35q0 20 -6.5 63t-6.5 66 z" />
<glyph unicode="k" horiz-adv-x="405" d="M43 1329q-1 38 -1 73q0 70 5 128q14 8 31 8q27 0 74 -37q18 -20 19 -71q0 -25 -5 -58q1 -10 1 -22q0 -51 -22 -119q-28 -87 -28 -126q0 -32 8 -61q0 -16 8 -38q12 -29 14 -35v-23q0 -101 -16 -194v-13q0 -28 6 -77q4 -2 15 8q16 260 88 622q2 14 53 250q12 8 26 8 q52 0 72 -63q-6 -72 -72 -219q-57 -125 -57 -205v-10q-18 -141 -51 -426q29 -39 38 -121t30 -115q-2 -18 -2 -38q0 -54 12 -124q20 -117 22 -151q-2 -6 -32 -6q-14 33 -27.5 103.5t-24 100t-24.5 132.5q-14 86 -41 133q0 10 -10 28q-1 -3 -1 -8q0 -19 15 -57 q-12 -92 -14 -172v-31q0 -75 8 -125q-6 -98 -6 -96q-17 -8 -24 -8h-3q-31 27 -31 78q0 10 2 30v31q0 33 -8 55q-1 12 -1 32q0 69 11 228q-18 86 -26 283q-12 172 -31 518z" />
<glyph unicode="l" horiz-adv-x="251" d="M31 1417q0 23 20 117q8 4 21 4q49 0 80 -59q-2 -45 -23 -240q-9 -84 -9 -150q0 -50 5 -90q-8 -31 -8 -67q0 -27 18 -146q5 -36 5 -67q0 -72 -29 -115q-2 -22 -2 -50q0 -67 10 -173q5 -54 6 -96q0 -57 -10 -95q0 -16 6 -51t4 -53q6 -6 16 0q12 6 19 4q12 1 22 1 q26 0 45 -7q3 -4 3 -7q0 -8 -21 -11q-10 0 -45 -5q-16 -1 -27.5 -1t-19.5 1q-27 2 -41 19q-12 65 -12 165q0 44 2 95q7 131 7 217q0 57 -3 94q-2 27 -25 541q-14 192 -14 225z" />
<glyph unicode="m" horiz-adv-x="446" d="M39 1292q-7 65 -7 119q0 67 11 117q10 8 20 8q16 0 41 -23q35 -31 37 -32q20 -57 21 -150q-1 -41 -1 -71q0 -61 3 -80q-4 -188 -4 -222q4 -115 26 -190q4 -29 5 -96q0 -22 -1 -49q-1 -18 -1 -34q0 -70 14 -112q48 156 48 301q0 38 -3 76q23 215 80 643q31 51 43 51 q10 0 22 -12q2 -5 29 -25q14 -57 14 -144q0 -29 -2 -62q-4 -66 -7 -188t-15 -259q-12 -129 -43 -217q6 -27 6 -53q0 -57 -25 -101q2 -37 4 -73q4 -43 21 -66q0 -88 -17 -256q-4 -4 -28 -4l-8 8q-8 52 -8 127q0 22 1 47q6 182 7 195q-5 58 -5 125v22q0 18 11 133q4 50 4 93 q0 28 -2 53q-16 -68 -35 -234q-16 -152 -41 -233q5 -33 5 -81.5t-5 -113.5q0 -23 -16 -141q-14 -14 -39 0q-8 16 -9 37q0 4 7 49q2 31 -4 51q-4 45 -25 131q0 47 -12 152q-9 89 -9 152v12q-4 43 -26 123q-1 -12 -1 -30q0 -64 11 -200q4 -47 4 -86q0 -71 -12 -117 q-4 -25 -4 -55q0 -37 9 -109.5t9 -105.5q-4 -2 -13 -10t-18 -8q-14 0 -26 18q-10 92 -14 211q-1 35 -1 69q0 87 7 175q4 53 4 113t-4 128q-8 168 -33 504z" />
<glyph unicode="n" d="M20 1518q12 10 27 10q39 0 74 -55q-1 -15 -1 -33q0 -87 17 -226q20 -180 21 -258q35 -88 42 -231q8 -199 13 -236q8 47 9 144.5t7 144.5q7 62 7 276v56l-3 188q0 111 9 199q12 35 28 35q61 -23 62 -113q0 -27 -8 -87q-7 -49 -7 -74v-11q-10 -37 -17 -109.5t-17 -107.5 q0 -31 2 -92t2 -92q-4 -61 -11 -182q-3 -63 -3 -118q0 -28 1 -54q0 -29 3.5 -89.5t3.5 -93.5q0 -102 -17 -164q6 -14 4 -32q-4 -33 -5 -34t-12 -11q-8 -7 -15 -6l-7 1q-33 86 -45 209q-10 106 -18 213q-10 35 -19.5 117t-19.5 119q-2 -2 -21 -49q0 -45 15 -273q5 -71 5 -125 q0 -65 -7 -106q0 -8 4 -39q2 -23 0 -35q-4 -20 -21 -31q-2 0 -6 1.5t-8 -1.5q-20 88 -20 220q0 39 2 122.5t2 129.5q-10 61 -10.5 236t-12.5 276q-10 90 -16 235q-10 197 -13 236z" />
<glyph unicode="o" d="M29 1364q4 123 67 154q27 12 56 12q98 0 157 -113q7 -33 7 -103q0 -58 -5 -140q-4 -14 -24 -56q-16 -33 -17 -53q0 -20 17 -37q10 -39 10 -84q0 -14 -8 -115q-3 -27 -3 -51q0 -35 7 -61q1 -17 1 -37q0 -58 -8 -136q-10 -91 -10 -136v-15q1 -25 1 -51q0 -110 -21 -223 q-8 -39 -82 -62q-18 6 -57 15q-39 16 -39 63v21q2 14 2 20q0 25 -8 41q-12 86 -13 219q-2 188 -4 221q3 24 3 64.5t-3 97.5t-3 100t3 74q-27 231 -27 339q0 18 1 32zM96 967q2 -37 23 -54q7 -102 7 -182t-7 -139q1 -34 1 -83t-1 -114q-2 -160 -2 -176q2 -10 2 -22 q0 -10 -2 -30t-2 -30q0 -27 14 -45q10 8 47 2q31 -6 41 10q4 57 16 185q-10 74 -14 174q4 137 6 409q-6 80 -12 248q4 36 4 88q0 66 -6 158q-33 8 -39 39q-23 -27 -29 -71t-12 -85q-31 -35 -31 -106q0 -102 -2 -115q0 -65 -1 -65t-1 4z" />
<glyph unicode="p" horiz-adv-x="329" d="M10 1530q2 4 6 5t4 3q43 2 68 2q156 0 215 -96q10 -82 10 -146q0 -100 -24 -174q-14 -41 -14 -104q0 -28 3 -62q3 -39 3 -71q0 -53 -9 -84q0 -18 -10 -51v-14q0 -23 -4 -54q-8 -47 -8 -61q0 -16 4 -29q0 -37 -45 -49q-16 -8 -41 4q-18 -25 -51 -21q-6 -6 -4 -12v-21 q0 -61 8 -194q2 -31 2 -59q0 -75 -12 -125q-2 -4 2 -23q2 -12 -15 -14q-3 -1 -6 -1q-15 0 -24 21v30q0 131 -15 372q-8 55 -14 196q-10 225 -10 451v133q-2 92 -2 143q-6 43 -17 105zM76 848q0 -53 18 -135q20 -100 25 -131q16 23 65 34q14 18 18.5 47t6.5 56 q-11 52 -11 126q0 37 3 79q8 128 8 202v27l4 147q1 16 1 32q0 69 -15 116q-14 10 -35 10q-8 0 -41 -4q-25 -6 -41 -2q2 -14 2 -35t-2 -49q43 -72 43 -158q0 -51 -20.5 -146t-22.5 -142q-6 -35 -6 -74z" />
<glyph unicode="q" horiz-adv-x="329" d="M25 1135q4 104 6 307q37 88 92 102q68 -23 92 -35q47 -26 74 -71q23 -79 23 -159q0 -15 -1 -30q-6 -104 -47 -166q-1 -9 -1 -19q0 -31 9 -71q12 -63 13 -84q-14 -72 -39 -217q0 -23 20 -215q4 -42 4 -78q0 -67 -14 -114q-8 -27 -10 -115q-2 -68 -31 -104q0 -2 16 -80 q-6 -10 -18 -11q-8 0 -12 5q-10 20 -41 55q0 12 -21 12h-30q-8 4 -11 14q-18 23 -37.5 48.5t-17.5 50.5q5 23 5 71v17v9q0 54 11 83q4 8 4 18t-8 33t-6 39q0 250 -12 504q0 8 -12 201zM84 1182q11 -32 11 -78q0 -13 -1 -27q-4 -63 -4 -91v-15q23 -104 23 -158q0 -41 -9 -74 v-29q0 -55 -5 -142q-4 -70 -4 -120q0 -28 1 -49q5 -10 5 -31q0 -28 -9 -75q4 -16 4 -35q0 -16 -5 -50t-5 -50q0 -49 45 -76q0 6 -1 18.5t-3 18.5q6 12 32 12q14 0 34 -4q8 10 8 39q0 168 -4 506q-8 39 -9 84q0 35 11 133q7 63 7 111q0 19 -1 36q-4 100 -6 199 q-4 117 -27 197q-8 -33 -53 -123q-35 -70 -35 -122v-5z" />
<glyph unicode="r" horiz-adv-x="335" d="M23 1528q6 12 16 12q4 0 12 -2t12 -2q8 0 15 8q10 1 20 1q86 0 189 -70q12 -18 4 -52q18 -27 18 -67q0 -16 -3 -49t-3 -50q0 -16 2 -28q12 -54 11.5 -120.5t-11.5 -145.5q-14 -80 -37 -232v-90q-4 -51 -45 -72q37 -23 68 -98q-18 -70 -25 -201q-6 -141 -18 -202 q-10 -8 -23 -9q-6 0 -12 2q-16 14 -14 43q4 45 4 48q6 46 6 124v41q-2 60 -2 102.5t2 67.5q-2 4 -8 31q-6 18 -23 21q-4 0 -47 -11q6 -37 6 -82q0 -31 -6 -116q-4 -42 -4 -74q0 -21 2 -37q-4 0 -4 -2q1 -11 1 -24q0 -39 -9 -99q-2 -6 4 -19.5t6 -19.5q0 -10 -18 -10 q-2 2 -9 2h-10q-8 12 -8 29q0 10 7 38.5t3 45.5q-10 86 -26 266q-4 60 -4 116q0 101 12 191q-10 53 -11.5 167t-11.5 173q-2 59 -12 215zM109 1096q-2 -23 -2 -45q0 -75 22 -129q-4 -63 -12 -185q-1 -19 -1 -37q0 -72 13 -127q9 -1 16 -1q16 0 21 6q47 29 47 94q0 18 -5 57 t-5 59q0 18 4 35q14 121 16 271v31q0 100 -10 286q-2 29 -29 27q-37 -2 -45 6q1 -23 1 -43q0 -80 -13 -115q-6 -63 -18 -190z" />
<glyph unicode="s" horiz-adv-x="335" d="M33 1235q2 62 2 107.5t-2 74.5q16 96 76 117q12 2 24 2q57 0 107.5 -45t50.5 -102q0 -14 -6 -60q-4 -37 -2 -59q-10 -14 -11 -31q0 -10 8.5 -36.5t4.5 -43.5q-9 -24 -9 -58q0 -38 11 -87q-6 -39 8 -49q3 -22 3 -43q0 -43 -11 -84q-33 -16 -58 -2l-12 12v16q0 42 8 105 q10 84 11 123q-7 29 -7 161v35v8q0 115 -57 172q-35 -2 -43 -43t-14 -77q2 -18 2 -39q1 -45 -19 -128q-18 -75 -18 -119v-9q-12 -10 -8 -31q4 -27 2 -33q37 -29 37 -100v-33q0 -61 6 -78q33 -29 57 -84q18 -45 39 -90q0 -41 27.5 -109.5t27.5 -103.5q0 -25 -8 -47 q6 -25 6 -53q0 -27 -7 -78t-7 -74q-4 -14 -19 -45q-18 -20 -59 -33q-33 0 -59 15q-33 27 -37 78q1 -20 2 -20q2 0 2 110q0 29 -12 116q-10 64 -10 107q0 11 1 20q10 20 33 5q27 -8 33 -39v-52q0 -2 -12 -77q-3 -22 -3 -42t3 -36q-10 -14 -11 -33q0 -14 12.5 -45t12.5 -45 q4 -2 14.5 -17.5t24.5 -11.5q18 8 37 35q-1 10 -1 23q0 37 9 92q12 84 12 123q0 31 -4 57q-57 125 -166 377q-2 20 -10 90q-8 59 -8 94q0 33 6 57q-6 18 -6 21q-5 39 -5 103q0 31 1 69z" />
<glyph unicode="t" horiz-adv-x="317" d="M23 1499q39 32 126 32q18 0 37 -1q6 -2 12.5 -7t14.5 -5t25.5 3t25.5 3q16 0 27 -15q16 -32 16 -52q0 -10 -4 -17q-8 -12 -29 -21q-27 -10 -30 -12q-12 -129 -35 -389q-2 -66 -4 -131q-2 -78 -19 -123q14 -20 11 -55q-4 -47 -2 -60q22 -52 22 -122q0 -29 -4 -62 q-11 -107 -11 -151q0 -13 1 -21q-4 -10 -8 -31q2 -14 1 -36q0 -32 -3 -81q-1 -25 -1 -45q0 -40 5 -63q-8 -2 -14 -2q-14 0 -21 12q-7 31 -7 91v16v19q0 57 -5 85q-6 152 -7 313v181q0 141 -4 422q-2 65 -2 117q0 79 4 130q-16 -2 -30 -2q-51 0 -72 29q-16 12 -16 51z" />
<glyph unicode="u" horiz-adv-x="376" d="M33 1317v41q0 101 8 176q12 10 27 10q40 0 75 -61q1 -8 1 -17q0 -52 -21 -125q-25 -90 -25 -129q0 -18 2 -34q16 -100 17 -322q0 -211 22 -319q6 -30 6 -96v-35q0 -86 15 -132q0 -23 -6.5 -64.5t-6.5 -62.5q0 -27 9 -49q4 -41 30 -53q23 18 39 6q29 43 29 111q0 16 -3 61 q-2 27 -2 47q0 13 1 23q6 121 6 252q0 47 -2 147.5t-2 151.5q0 45 2 144t2 153q0 104 -4 346q4 18 8 38.5t19 20.5h3q41 0 76 -61v-16q0 -90 -20 -257q-8 -72 -16 -245q-6 -76 -11 -152q-2 -29 -2 -54q0 -51 8 -91q-2 -39 -6 -131q-10 -72 -20 -220q0 -27 3 -78t3 -73 q0 -82 -33 -129q-8 -10 -31.5 -13t-31.5 -12h-5q-24 0 -59 31q-12 20 -17 69.5t-16 69.5q-20 164 -26 451q1 7 1 16q1 23 -7 57q-10 46 -11 66v26q0 94 -12 247q-14 190 -16 270z" />
<glyph unicode="v" horiz-adv-x="387" d="M23 1532q12 10 28 10q31 0 76 -47q23 -47 23 -109q0 -74 -35 -169v-9q0 -104 41 -350q14 -82 14 -229v-62q0 -116 6 -170q2 0 2 2h2q8 121 19 244q6 89 6 162q0 44 -2 82q25 117 39 321q18 238 30 322q6 14 19 14q-6 0 37 -10q43 -31 43 -92q0 -31 -15 -84 q-16 -70 -18 -78q-74 -442 -74 -680q-14 -41 -16 -115q-4 -80 -12 -110q-37 -139 -37 -236q0 -33 4 -63q-4 -12 -21 -37q-4 2 -15 6t-15 6q-18 80 -23 232q-2 162 -16 233q-16 168 -45 502q-4 68 -13 207q-4 49 -32 307z" />
<glyph unicode="w" horiz-adv-x="540" d="M31 1460q0 33 4 62q4 18 22 18t35 -14q41 -16 49 -70v1q-2 0 -2 -89q-3 -21 -3 -53q0 -64 11 -172q5 -51 5 -92q0 -65 -13 -105q-2 -35 31 -84q4 -41 14 -108q20 76 35 198q23 178 27 201q0 18 -15 193q-5 67 -5 121q0 40 3 73q10 10 23 10q27 0 70 -51q3 -41 3 -91 q0 -68 -6 -151q-8 -119 -18 -239q14 -86 23 -232q10 -170 18 -231q-2 4 6 8q28 182 28 269q0 16 -1 28q23 119 33 326q12 242 22 325q10 12 23 13q4 0 45 -19q10 -12 26 -39q-12 -244 -67 -426q-2 -139 -31 -266q8 -34 8 -75q0 -61 -18 -136q-33 -139 -33 -197v-6 q-8 -78 -29 -225q-2 -8 -2 -49q0 -31 -16 -41q-10 -2 -12 4q-2 4 0 12q2 12 2 15q-2 39 -11 119q-14 82 -23 256t-26 262q-2 2 -4 0q-51 -268 -55 -418q-2 -8 -10 -27q6 -62 6 -166v-55q-7 -11 -17 -11q-6 0 -14 5q-25 96 -31 248l-12 250q-8 104 -29 209v12q0 68 -20 193 q-18 116 -18 186q0 13 1 24q-2 29 -18 144q-14 94 -14 153z" />
<glyph unicode="x" horiz-adv-x="382" d="M31 1462q2 29 16 78q5 2 10 2q32 0 76 -59q8 -16 6 -45q-4 -53 -4 -47q0 -72 -4 -228q31 -86 47 -280q8 8 10 39.5t5 40.5q27 94 45 280q20 217 34 289q10 4 19 4q14 0 61 -35l19 -43q-29 -90 -56 -225q-20 -115 -43 -229q-31 -82 -36 -222q-8 -172 -19 -223 q20 -119 53 -530q-10 -8 -32 -2q-14 25 -16.5 81t-12.5 78q-4 74 -29 220q-12 -82 -49 -240q3 -26 3 -44t-3 -28q-10 -14 -12 -35q0 -33 -2 -36q-18 0 -17 -3q-20 6 -10 21q8 29 8 84v23.5v23.5q0 55 8 84q4 143 52 279v12q0 45 -13 115q-18 111 -20 135q-10 100 -37 309 q-10 74 -57 356z" />
<glyph unicode="y" horiz-adv-x="382" d="M29 1534q10 10 24 10t25 -10q27 -14 45 -49q2 -37 20 -119q15 -74 15 -117q-9 -59 -9 -138q0 -45 3 -97q5 -98 5 -160q0 -31 -1 -53q8 -31 12 -31q6 2 8 21q16 106 45 333q12 133 45 402q10 16 49 0q32 -19 32 -78q0 -17 -3 -37q-39 -264 -106 -563q-2 -27 -35 -199 q2 -31 2 -68q0 -86 -10 -208q-14 -201 -15 -275q2 -20 2 -63q-11 -6 -18 -6q-5 0 -8 4q-8 10 -7 38.5t-4 39.5q-10 29 -10 65q0 29 8.5 83t8.5 83q-13 50 -13 123q0 40 4 86q0 25 -12 102q-8 55 -8 93v14q-31 258 -94 774z" />
<glyph unicode="z" horiz-adv-x="352" d="M37 1495q2 2 5 6t5 6q61 0 180 -2q8 23 29 23q14 0 37 -10q39 -23 45 -50q-10 -45 -19 -118q-8 -80 -14 -113q-16 -84 -61 -244q0 -18 -9.5 -51t-9.5 -49q0 -14 4 -27q12 -25 13 -55q0 -6 -27 -125q-27 -37 -25 -55q6 -29 7 -60q0 -33 -9.5 -97t-9.5 -95q0 -23 4 -43 q-4 -6 6 -29q-2 -53 -18 -129q-23 -100 -25 -119q12 -8 45 -6t45.5 0t20.5 -14q2 -6 -18 -12q-16 1 -31 1q-43 0 -84 -8q-8 -4 -14 -4q-12 0 -12 36q0 11 1 26q23 96 33 262q4 104 21 315q12 96 24 336q14 262 35 404q-10 16 -51 14t-54 6q-23 14 -46 31.5t-23 48.5z" />
<glyph unicode="&#x2000;" horiz-adv-x="802" />
<glyph unicode="&#x2001;" horiz-adv-x="1604" />
<glyph unicode="&#x2002;" horiz-adv-x="802" />
<glyph unicode="&#x2003;" horiz-adv-x="1604" />
<glyph unicode="&#x2004;" horiz-adv-x="534" />
<glyph unicode="&#x2005;" horiz-adv-x="401" />
<glyph unicode="&#x2006;" horiz-adv-x="267" />
<glyph unicode="&#x2007;" horiz-adv-x="267" />
<glyph unicode="&#x2008;" horiz-adv-x="200" />
<glyph unicode="&#x2009;" horiz-adv-x="320" />
<glyph unicode="&#x200a;" horiz-adv-x="89" />
<glyph unicode="&#x202f;" horiz-adv-x="320" />
<glyph unicode="&#x205f;" horiz-adv-x="401" />
<glyph unicode="&#x25fc;" horiz-adv-x="1546" d="M0 0v1546h1546v-1546h-1546z" />
</font>
</defs>
</svg>
